<svg version="1.2" xmlns="http://www.w3.org/2000/svg" viewBox="0 0 2748 3792" width="2748" height="3792">
	<title>just  logo_upscayl_3x_ultrasharp</title>
	<style>
		.s0 { fill: #201f1d } 
		.s1 { fill: #003466 } 
		.s2 { fill: #62cb3d } 
		.s3 { fill: #fdb503 } 
		.s4 { fill: #fc9004 } 
	</style>
	<g id="Background copy">
		<path id="Bulb" class="s0" d="m1116 2862.1c-2.5 0.5-6.2 2.2-8.4 3.7-2.1 1.5-6.4 5.4-9.5 8.7-3.1 3.3-6.8 7.6-8.3 9.5-1.4 1.9-3.5 6.4-4.6 10-1.1 3.6-2.3 9-2.7 12-0.4 3.1-0.2 8.3 0.5 12 0.6 3.6 2.6 9.4 4.3 12.9 1.9 3.8 5.7 9 9.2 12.6 3.3 3.3 8.7 7.8 12 10 3.3 2.1 7.8 4.6 10 5.6 3.8 1.8 11.2 1.9 160.5 1.9 139.5 0 157.2 0.2 163 1.6 3.6 0.9 10.2 3.3 14.8 5.5 7.1 3.4 8.6 4.5 11 8.7 1.5 2.6 4.2 8 6 12 1.8 3.9 4 11 5 15.6 1.5 7.4 1.5 9.3 0.4 14.8-0.7 3.5-2.6 9-4.1 12.3-1.8 3.7-4.9 7.9-8.3 11-3 2.8-8.3 6.6-11.9 8.5l-6.4 3.5-297 0.2c-7 3.5-13 7-18 9.9-5 2.9-11.6 7.4-14.7 9.9-3.2 2.5-7.6 6.9-9.7 9.8-2.2 2.8-4.8 7-6 9.2-1.1 2.2-2.6 6.5-3.3 9.5-0.9 4.4-0.9 6.7 0.2 11.5 0.7 3.3 2.9 9.2 4.9 13 2.3 4.5 6.4 10 11.6 15.4 4.4 4.6 10.9 10.5 14.5 13.1 3.6 2.6 7.5 5.2 8.8 5.9 1.6 0.8 15.6 0.8 54 0.1 28.4-0.6 72.4-1.4 97.7-2 25.3-0.5 67.8-1.5 94.5-2.1l48.5-1.1c13.2 6.7 20.4 11.2 24.5 14.3 4.1 3 9.2 7.5 11.3 10 2.1 2.4 5.3 7.3 7 10.9 2.9 5.9 3.2 7.2 3.1 16 0 8.1-0.4 10.5-2.9 16.5-1.6 3.8-5.5 10.4-8.5 14.5-3.1 4.1-8.9 10.4-12.8 14-4 3.6-8.3 6.8-9.5 7.2-1.2 0.3-71.5 0.6-156.2 0.7l-154 0.1c-2.1 19.1-2.4 26.9-2 30 0.3 3 1.4 8 2.2 11 0.9 3 2.6 7.8 3.8 10.5 1.2 2.8 3.8 7.5 5.8 10.5 1.9 3 5.7 7.8 8.4 10.6 2.6 2.8 7.3 6.9 10.3 9.1 3 2.3 8.8 5.7 12.7 7.7 4 2 12.6 5.2 19 7.1 6.5 2 16.1 5.2 21.3 7.2 5.2 2 12.7 5.2 16.5 7.1 3.8 1.9 10.1 5.5 13.9 8.1 3.8 2.5 8.5 6.7 10.5 9.2 2 2.5 7.2 9 11.6 14.4 4.4 5.4 10.5 12.8 13.5 16.5 3 3.7 14.4 17.7 25.2 31.1 10.8 13.4 23.6 29.1 28.3 34.9 4.8 5.8 12.8 15.7 17.9 22 5.1 6.3 10 12.7 10.9 14.3l1.7 2.7h111c11.5-15.1 15.8-20.6 17-22 1.2-1.4 3.1-3.6 4.3-5 1.2-1.4 4.7-5.7 7.7-9.5 3-3.8 5.7-7.2 6-7.5 0.3-0.3 2.3-2.7 4.5-5.5 2.1-2.7 4.2-5.2 4.5-5.5 0.3-0.3 2.1-2.5 4-5 1.9-2.5 5-6.3 6.9-8.6 2-2.2 4.6-5.2 5.8-6.7 1.3-1.5 2.3-2.9 2.3-3.2 0-0.3 0.9-1.5 2.1-2.7 1.1-1.3 5.5-6.6 9.7-11.8 4.2-5.2 8.7-10.6 9.9-12 1.2-1.4 3.1-3.6 4.3-5 1.2-1.4 4.3-6.7 6.8-11.8 2.6-5.1 5-9.2 5.4-9.2 0.5 0 0.8-0.6 0.8-1.2-0.1-0.7 3.9-5.1 8.7-9.9 4.8-4.7 12-10.4 15.8-12.6 3.8-2.3 10.6-5.6 15-7.3 6.3-2.6 10.3-3.4 19-4.1 6-0.4 13.9-1.7 17.5-2.8 3.6-1.1 9.6-3.7 13.4-5.8 3.8-2.1 9.2-5.9 12-8.4 2.8-2.5 8.3-6.4 12.1-8.7 3.8-2.2 9.3-6.2 12.1-8.9 2.8-2.7 6.5-7.6 8.2-11 1.8-3.5 3.9-9.3 4.8-13 1.2-5.2 1.5-9.6 1-18.8-0.3-6.6-1-13.8-1.6-16-0.5-2.2-1.1-4.1-1.2-4.3-0.2-0.1-6.6-0.7-14.3-1.2-7.7-0.4-19.6-1.1-26.5-1.5-8.6-0.5-13.7-1.2-16.5-2.4-2.2-1-5.3-3.1-6.9-4.7-1.5-1.6-3.9-4.7-5.2-6.9-1.3-2.2-3.3-6.7-4.4-10-1.2-3.3-2.8-9-3.5-12.7-0.8-3.8-1.5-10.3-1.5-14.5 0-4.3 0.6-10 1.4-12.8 0.7-2.7 2.3-7.2 3.5-10 1.3-2.8 4.6-7.1 7.4-9.8 2.9-2.7 7.9-6.2 11.2-7.8 3.3-1.6 8.7-3.5 12-4.4 3.3-0.8 11.2-1.9 17.5-2.4 6.3-0.5 14.4-1.7 18-2.6 3.6-0.9 9.4-3.1 12.9-4.8 3.6-1.8 8.5-5.1 11-7.3 2.5-2.3 5.6-6.1 6.8-8.5 1.2-2.4 3-7.8 3.9-11.9 0.9-4.1 1.6-12 1.7-17.5 0-6.5-0.5-11.9-1.6-15.5-0.9-3-2.7-7.5-4.1-10-1.3-2.5-4.5-6.4-7-8.7-2.5-2.4-6.9-5.4-9.6-6.8-2.8-1.4-7.6-3.2-10.8-4-3.1-0.8-12.5-1.9-20.7-2.4-11.4-0.8-16.9-1.6-23-3.6-4.4-1.5-10-3.9-12.5-5.5-2.5-1.5-5.7-4.3-7.1-6.2-1.5-1.8-3.4-5.5-4.3-8.3-0.9-2.7-3.2-9.9-5.2-16-3.3-10-3.6-11.8-3.2-19.5 0.3-5.4 1.1-10 2.3-12.5 1-2.2 3.2-6 4.9-8.5 1.7-2.5 4.9-6.3 7.3-8.5 2.3-2.2 6.8-5.6 10-7.5l5.7-3.5c47-1.2 57.1-1.8 61.8-2.9 3.8-0.9 9.6-2.9 13-4.6 3.5-1.6 8.5-5.1 11.3-7.8 2.7-2.7 6.3-7.3 8-10.3 3-5.3 3-5.6 3-20.4 0-11.6-0.5-16.4-1.9-21-1-3.3-2.6-7.6-3.6-9.5-1-1.9-4-5.9-6.6-8.9-3.3-3.6-7.2-6.4-11.9-8.7-4-2-9.8-3.9-13.5-4.4-4-0.6-119.9-0.9-306.5-0.9-166.5 0.1-302 0.6-304.5 1z"/>
		<path id="human-head" class="s1" d="m392 2692.9c-5.2 1.1-14.4 3.5-20.5 5.5-6.1 2.1-15.3 5.8-20.5 8.4-5.2 2.7-13.6 7.5-18.5 10.7-5.4 3.6-13.5 10.4-20 17-7.9 7.9-13.3 14.4-19 23-4.4 6.6-9.8 16.3-12.1 21.5-2.3 5.2-5.3 13.1-6.7 17.5-1.4 4.4-3.2 11.6-4.1 16-0.9 4.4-2 12.9-2.5 19-0.7 7.1-0.7 14.5 0 21 0.5 5.5 1.6 13.6 2.5 18 0.9 4.4 3.1 12.7 4.9 18.5 1.9 5.8 5.5 14.6 8 19.5 2.6 4.9 7 12.6 10 17 2.9 4.4 8.4 11.6 12.2 16 3.8 4.4 10.5 10.9 14.9 14.4 4.3 3.6 11.5 8.8 15.9 11.7 4.4 2.8 11.7 7 16.3 9.3 4.5 2.2 12.1 5.4 16.9 7.1 4.9 1.6 13.3 3.9 18.8 5.1 8.4 1.9 13.1 2.3 29.5 2.3 16.7 0 21-0.3 30-2.2 5.8-1.3 13.9-3.5 18-4.9 4.1-1.4 12-4.6 17.5-7.2 5.5-2.6 13.6-7.1 18-10 4.4-3 10.7-7.6 14-10.4 3.3-2.8 9.1-8.2 12.8-12.1 3.7-3.9 9.7-11.2 13.2-16.1 3.6-4.9 8.9-13.9 11.9-20 3-6.1 6.8-15.3 8.4-20.5 1.7-5.2 3.7-12.9 4.6-17 0.8-4.1 2-12.4 2.6-18.5 0.8-7.6 0.8-14.2 0.1-21.5-0.6-5.8-1.7-14.1-2.6-18.5-0.8-4.4-2.8-12.1-4.4-17-1.6-4.9-4.5-12.4-6.4-16.5-1.8-4.1-5.5-11.1-8.2-15.5-2.6-4.4-8.2-12.2-12.4-17.4-4.2-5.2-10.5-12.1-14.1-15.3-3.6-3.2-10.6-8.8-15.5-12.3-4.9-3.6-13.9-8.9-20-11.9-6.1-3-14.6-6.7-19-8.1-4.4-1.5-11.8-3.6-16.5-4.7-6.6-1.5-13-2.1-28.5-2.4-16.4-0.3-21.7 0-29.5 1.5z"/>
		<path id="1st-chip" class="s2" d="m1111 2086.2c-40.2 40.6-63 62.9-64 62.6-0.8-0.2-3.7-4.5-6.3-9.4-2.7-4.9-7.3-12.5-10.2-16.9-2.9-4.5-9-11.5-13.7-16-6.8-6.4-10.8-9.2-19.9-13.8-7.9-4-14.6-6.5-21.7-8.2-7.6-1.9-13-2.5-21-2.5-6.8 0-16 0.9-25.2 2.4-8 1.4-17.6 3.5-21.5 4.8-3.9 1.3-8 3-9.1 3.8-1.2 0.8-7 5.8-12.8 11-5.9 5.2-13.7 12.9-17.3 17-3.5 4.1-9 11.6-12 16.5-3.1 4.9-7.1 12.2-8.8 16-1.8 3.9-4.2 11.1-5.5 16-1.8 7-2.2 11.6-2.2 21 0 9.3 0.6 14.1 2.5 21.5 1.3 5.2 3.7 12.4 5.3 16 1.5 3.6 5 10.3 7.8 15 2.7 4.7 7.4 11.9 10.5 16 3 4.1 10.2 12.2 15.9 18 5.6 5.8 10.3 10.9 10.3 11.5 0 0.6-3.1 4.9-6.8 9.7-3.7 4.7-9.7 12.4-13.3 16.9-3.6 4.6-11 14.2-16.4 21.4-5.4 7.1-15.3 19.9-22 28.4-6.7 8.4-15.6 19.7-19.9 25-4.3 5.3-11.6 14.7-16.2 20.9-4.7 6.1-9 11.4-9.5 11.7-0.5 0.3-1 1.3-1 2.3 0 0.9 4.4 5.8 9.7 10.7 5.4 5 21.5 20.5 35.8 34.5 14.3 14 30.1 29.3 35 33.9 5 4.7 18.2 17.6 29.5 28.6 11.3 11.1 32.2 31.4 46.6 45.1 14.4 13.7 41.8 40.2 61 58.9 19.2 18.7 41 39.8 48.4 46.9 7.4 7.1 27.2 26.3 44 42.6 16.8 16.3 31.8 30.6 33.5 31.8l3 2.3 565.5-0.1c0-201.5-0.2-219.2-1.4-220.2-0.7-0.7-38.9-38.4-84.7-83.8-45.8-45.4-102-100.9-124.8-123.5-22.8-22.6-71-70.3-107-106.1-36.1-35.8-81.1-80.3-100-99-18.8-18.6-50.1-49.8-69.5-69.2-19.3-19.3-35.8-35.2-36.6-35.1-0.8 0-29.6 28.4-64 63.1z"/>
		<path id="4th-chip" class="s3" d="m2112 1084.7c-8 9.2-18.6 21.2-23.5 26.8-4.9 5.5-11.1 12.5-13.7 15.5-2.6 3-4.7 6.3-4.8 7.2 0 1 1.5 4.6 3.4 8 1.9 3.5 5.1 10.1 7.1 14.8 2 4.7 5.8 15.7 8.5 24.5 2.6 8.8 5.6 20.5 6.5 26 1.4 8.2 1.6 14.6 1.2 36-0.4 21.9-0.8 27.1-2.5 33-1.1 3.8-3.2 10.8-4.7 15.5-1.5 4.7-4.6 12.5-7 17.5-2.4 4.9-6.3 11.9-8.7 15.5-2.4 3.6-6 8.9-8.1 11.7-2 2.9-4.5 6.1-5.5 7-0.9 1-4.4 5.2-7.7 9.3-3.2 4.1-7.5 9.3-9.3 11.5-1.9 2.2-7.3 8-12.1 12.8-4.7 4.9-12.9 12.1-18.1 16.2-5.2 4-12.9 9.3-17 11.7-4.1 2.5-11.1 6.1-15.5 8-4.4 2-10.9 4.5-14.5 5.6-3.6 1.2-9.2 2.8-12.5 3.6-3.3 0.8-10.3 2.2-15.5 3-5.2 0.8-14.9 1.8-21.5 2.1-6.9 0.4-17.1 0.2-24-0.4-6.6-0.7-17.4-2.3-24-3.6-6.6-1.4-19.4-4.8-28.5-7.5-9.5-3-21.8-7.6-29-11.1-6.9-3.3-13.3-5.9-14.3-5.9-0.9 0-6.6 5.1-12.5 11.2-5.9 6.2-16.8 17.7-24.2 25.6-7.4 7.9-16.2 17.3-19.5 20.9-5.3 5.7-5.9 6.7-4.9 8.6 0.6 1.2 3.4 4.7 6.1 7.7 2.7 3 8.5 10.3 12.9 16.1 4.3 5.9 8.6 12 9.5 13.5 1 1.6 4.7 8.1 8.5 14.4 3.7 6.3 9.3 16.9 12.5 23.5 3.1 6.6 7.3 16.7 9.4 22.5 2 5.8 5.3 15.2 7.2 21 1.9 5.8 5.4 18.4 7.8 28 2.4 9.6 5.2 22.4 6.3 28.5 1.1 6 2.5 14.2 3.1 18 0.6 3.8 1.6 11.9 2.1 18 0.6 6 1.5 16.6 2.1 23.5 0.6 6.9 0.9 18.8 0.6 26.5-0.4 7.7-1.1 20.3-1.7 28-0.6 7.7-2.1 19.8-3.2 27-1.1 7.2-3.5 19.1-5.4 26.5-2 7.4-5.3 18.7-7.4 25-2.1 6.3-6.8 18.6-10.4 27.2-3.6 8.7-9 20.6-12 26.5-2.9 6-8.3 16-11.8 22.3-3.6 6.3-9.8 16.9-13.8 23.5-4 6.6-10 15.6-13.3 20-3.3 4.4-7.2 9.2-8.6 10.7l-2.6 2.7c107.3 106.5 123.5 123.2 123.5 124.8 0 1.6-1 2.8-3.2 3.9-1.8 1-4.9 2.9-6.8 4.3-1.9 1.4-6.6 5.3-10.5 8.6-3.8 3.3-10.4 9.5-14.5 13.9-4.1 4.3-9.2 10.4-11.3 13.5-2.1 3.1-5.3 8.3-7.2 11.6-1.8 3.3-5 10.9-7 17-3 9-3.8 12.9-4.2 21.5-0.4 7.2 0 13.3 1 19.5 0.9 4.9 2.5 11.7 3.6 15 1.1 3.3 3.8 9.8 6 14.5 2.2 4.7 5.7 11.3 7.8 14.6 2.1 3.4 5.7 8.8 7.9 12 2.3 3.3 6.1 8.1 8.5 10.8 3.5 3.9 7 6.2 17.4 11.2 7.2 3.6 17 7.7 22 9.4 5 1.6 13.2 3.6 18.3 4.4 5 0.9 13.4 1.6 18.5 1.6 5 0 13-0.7 17.7-1.5 4.7-0.8 12.3-2.9 17-4.6 4.7-1.8 10.3-4.1 12.5-5.2 2.2-1.1 8.3-4.8 13.5-8.2 6.5-4.3 12.8-9.6 20-17.1 7.6-8 11.9-13.5 15.8-20.2 3.8-6.8 5.7-9.2 7.2-9.2 1.3 0 17.4 15.6 46.8 45.2 24.6 24.9 49.2 50 54.7 55.8 5.5 5.8 13 13.8 16.8 17.8 3.7 3.9 7.1 7.2 7.7 7.2 0.6 0 6.1-5.5 12.3-12.1 6.1-6.7 12.1-13.4 13.2-14.9 1.1-1.5 5.8-7.1 10.5-12.5 4.7-5.3 13.1-16.1 18.7-23.9 5.6-7.7 14.9-21.1 20.7-29.6 5.7-8.5 14.5-22 19.4-30 4.9-8 12.1-20.1 16-27 3.9-6.9 10.7-19 15.1-27 4.5-8 14.4-26.9 22-42 7.6-15.1 17.9-36.3 22.9-47 4.9-10.7 11.9-26.5 15.5-35 3.6-8.5 7.9-18.9 9.5-23 1.7-4.1 4.8-13.8 7-21.5 2.1-7.7 5.3-19.2 7-25.5 1.7-6.3 4.1-15.8 5.2-21 1.2-5.2 2.7-11.8 3.5-14.5 0.8-2.8 3-12.9 4.9-22.5 2-9.6 4.9-24.5 6.5-33 1.6-8.5 4.5-26.5 6.5-40 1.9-13.5 4-29 4.6-34.5 0.6-5.5 1.8-16.8 2.6-25 0.8-8.3 1.9-26 2.4-39.5 0.5-13.5 0.9-37.8 0.9-54 0-16.2-0.4-39.8-0.9-52.5-0.5-12.7-1.6-29.3-2.4-37-0.8-7.7-2.2-19.2-3-25.5-0.8-6.3-2.6-17.1-4-24-1.3-6.9-3.2-17.5-4-23.5-0.9-6-2.4-15.7-3.2-21.5-0.9-5.8-3.6-19.1-5.9-29.5-2.4-10.5-5.2-22.2-6.3-26-1.1-3.8-3.8-13.3-6.1-21-2.3-7.7-6.9-22.1-10.3-32-3.3-9.9-8.2-23-10.8-29-2.6-6-5.3-12.8-6-15-0.7-2.2-3.3-8.5-5.7-14-2.5-5.5-7.9-17.2-12-26-4.1-8.8-8.8-18.7-10.5-22-1.6-3.3-5.9-11.6-9.5-18.5-3.6-6.9-10.2-18.8-14.6-26.5-4.4-7.7-9.7-16.7-11.7-20-2-3.3-8-13-13.2-21.5-5.2-8.5-12.9-20.7-17-27-4.2-6.3-14.5-21.2-23-33.2-8.4-11.9-20.7-28.5-27.3-36.9-6.6-8.4-15.5-19.6-19.8-24.8-4.3-5.3-11.1-13.8-15.2-18.9-4.4-5.4-8.2-9.2-9.2-9.2-1 0.1-8.2 7.4-16.3 16.7z"/>
		<path id="2nd-chip" class="s3" d="m709.3 1074.1c-3.9 4.1-9.5 10.3-12.4 13.9-3 3.6-9.4 11.2-14.4 17-4.9 5.8-13.5 16.4-19.1 23.5-5.5 7.2-11.6 15.3-13.5 18-1.8 2.8-6.7 9.6-10.9 15.1-4.1 5.6-12.1 17.3-17.8 26-5.7 8.8-13.7 21.8-17.9 28.9-4.2 7.2-10.7 18.6-14.6 25.5-3.9 6.9-12.8 24-19.8 38-7 14-15.7 32.7-19.4 41.5-3.7 8.8-7.2 16.9-7.8 18-0.6 1.1-3.4 8.5-6.3 16.5-2.9 8-7.7 21.1-10.8 29.3-3.1 8.1-9.8 28.8-15 46-5.1 17.1-11.2 38.6-13.4 47.7-2.3 9.1-5.2 21.5-6.6 27.5-1.4 6.1-3.7 16.8-5.1 24-1.4 7.2-2.9 15.5-3.4 18.5-0.6 3-1.7 9.6-2.5 14.5-0.9 5-2.2 13.3-3 18.5-0.9 5.2-2 13.6-2.6 18.5-0.6 5-1.7 14.8-2.6 22-0.8 7.2-2.2 20.7-3.2 30-1.3 13.6-1.7 26.5-1.7 64 0 36.5 0.4 51.6 1.8 67.5 0.9 11.3 2.4 25.7 3.2 32 0.8 6.3 2.1 16.9 2.9 23.5 0.9 6.6 2.2 16.1 3.1 21 0.8 5 2.1 13.1 2.9 18 0.8 5 3.3 18 5.5 29 2.2 11 4.9 23.6 5.9 28 1.1 4.4 4.5 17.7 7.7 29.5 3.1 11.8 7.2 26.5 9 32.5 1.9 6.1 6.3 19.3 9.8 29.5 3.5 10.2 8.9 25 12 33 3 8 8.9 22.6 13.2 32.5 4.2 9.9 11.6 26.1 16.4 36 4.8 9.9 12.7 25.4 17.6 34.5 4.8 9.1 12.2 22.1 16.3 29 4 6.9 10.8 17.8 15 24.3 4.3 6.5 12.2 18.7 17.8 27 5.5 8.4 15.8 22.9 22.9 32.2 7.1 9.3 15.6 20.4 18.9 24.5 3.3 4.1 11.5 13.6 18.2 21 6.7 7.4 17.6 18.8 24.3 25.3 6.6 6.4 12.4 11.7 12.9 11.7 0.4 0 3.4-3.2 6.7-7.2 3.3-4 12-14.5 19.5-23.2 7.4-8.8 16.4-19.2 20-23.2 3.6-3.9 7.1-8.2 7.9-9.5 1.2-2.2 0.9-3.3-3.7-13.4-2.9-6.1-7-16.2-9.3-22.5-2.2-6.3-5.5-16.9-7.2-23.5l-3.2-12v-60c5.7-21.7 9.2-32.9 11.5-39 2.2-6.1 6.2-15.1 8.9-20 2.6-4.9 7.8-13.7 11.5-19.5 3.7-5.8 10.2-15.4 14.5-21.5 6.8-9.6 9.3-12.2 19.7-20.3 6.5-5.2 14.8-11.3 18.4-13.7 3.6-2.4 8.5-5.5 11-6.9 2.5-1.5 10.4-5.5 17.5-9.1 7.2-3.5 19.1-8.4 26.5-10.8 7.4-2.5 17.8-5.2 23-6.2 7.8-1.4 14-1.6 35.5-1.2 24.4 0.4 26.6 0.6 35.5 3.1 5.2 1.4 13.8 4.1 19 5.8 5.2 1.7 12.7 4.6 16.5 6.6 3.8 1.9 11.7 6.3 17.5 9.9 7.1 4.3 11.2 6.3 12.5 5.9 1.1-0.3 4.4-3.1 7.4-6.3 3-3.2 9.8-10.3 15.1-15.8 5.3-5.5 16.4-17.3 24.8-26.2 8.4-9 15.2-16.6 15.2-17 0-0.5-4.6-5.5-10.3-11.3-6.1-6.2-13-14.4-16.7-20-3.4-5.2-9.8-16.6-14.1-25.2-4.3-8.7-9.7-20.2-12-25.5-2.2-5.4-6.4-17.2-9.4-26.3-3-9.1-7.7-25.5-10.5-36.5-2.8-11-6.6-28.5-8.5-39-1.8-10.4-4.2-23.5-5.2-29-1.5-8.5-1.8-15.7-1.8-49 0-33.5 0.3-40.5 1.9-49.5 1-5.8 2.4-13.4 3.2-17 0.8-3.6 2.9-11.9 4.5-18.5 1.7-6.6 4.8-16.9 6.9-23 2.1-6 5.6-15.5 7.8-21 2.2-5.5 5.7-13.6 7.7-18 2-4.4 5.7-12 8.2-17 2.5-4.9 6.2-11.6 8.2-14.8 2-3.1 7.9-12.4 13.2-20.5 5.2-8.1 13.4-19.5 18.2-25.4 4.8-6 8.7-11.2 8.7-11.8 0-0.5-6-7.1-13.2-14.6-7.3-7.5-17.3-17.3-22.3-21.7-4.9-4.4-22.9-21.8-40-38.6-17-16.9-35.9-35.1-41.8-40.6-5.9-5.5-10.7-10.6-10.5-11.4 0.2-0.8 4.6-4.4 9.9-8 5.3-3.6 13.1-9.5 17.3-13.1 4.2-3.6 10.6-10 14.1-14.2 3.6-4.3 7.6-9.6 9-11.8 1.4-2.2 2.2-4 1.9-4-0.3 0 0.2-0.8 1.2-1.7 0.9-1 3.1-4.5 4.9-7.8 1.8-3.3 4.1-8.2 5-11 0.9-2.7 2.5-10.2 3.6-16.5 1.7-10 1.8-12.7 0.9-21-0.6-5.2-2.2-13.9-3.6-19.2-1.3-5.4-3.3-11.9-4.3-14.5-1.1-2.7-4-9.3-6.6-14.8-2.6-5.5-5.9-11.8-7.4-14-1.5-2.2-7.2-7.4-12.7-11.5-5.4-4.2-13.9-10-18.9-13-4.9-3-12.6-6.9-17-8.8-4.4-1.8-12.3-4.5-17.5-6-8.6-2.3-11.2-2.6-27-2.6-15.7-0.1-18.2 0.2-24 2.2-3.6 1.3-11 4.5-16.5 7.1-5.5 2.7-14.5 8.2-20 12.3-5.5 4.1-12.3 9.9-15.1 12.9-2.8 3-9 10.8-13.9 17.4-4.8 6.6-9 12.2-9.2 12.5-0.2 0.3-5.8-4.9-12.6-11.5-6.7-6.6-22.5-21.7-35.1-33.5-12.6-11.8-28.2-26.4-34.5-32.4-6.4-6-18.6-18.1-27.1-26.9l-15.5-16z"/>
		<path id="1st-glitter" class="s4" d="m165.9 873.3c-1.9 1.7-8.2 8.8-13.9 15.6-5.8 6.8-11.2 13.3-12.2 14.5-0.9 1.1-1.9 3.2-2.3 4.6-0.6 2 0 3.3 3.1 6.9 2.2 2.4 11.1 10.5 19.8 18 8.8 7.5 19.8 17 24.5 21.2 4.7 4.1 32.7 28.2 62.1 53.4 29.4 25.2 56.9 48.8 61 52.5 4.1 3.6 9.7 8.4 12.5 10.6 2.7 2.1 5.7 4.5 6.5 5.3 0.8 0.8 6 5.3 11.5 10 5.5 4.7 14.9 13 21 18.4 6 5.4 12.6 10.7 14.5 11.7 3 1.5 3.9 1.6 6.5 0.6 1.6-0.7 4.4-2.9 6-4.8 1.6-1.9 4.1-4.8 5.4-6.4 1.4-1.6 6-6.8 10.3-11.6 4.3-4.9 8.5-10.3 9.4-12 1.2-2.6 1.3-3.9 0.5-6-0.6-1.6-7.2-7.9-15.4-14.8-7.8-6.6-17.6-15-21.7-18.6-4.1-3.6-11.5-10-16.3-14.2-4.9-4.2-9-7.5-9-7.2-0.1 0.2-2.7-2-5.8-5-3-3-12.9-11.8-22-19.4-9-7.7-24.7-21.2-34.9-30.1-10.2-8.8-24.1-20.8-30.9-26.5-6.8-5.8-17-14.4-22.5-19.2-5.6-4.8-10.5-8.4-11.1-8-0.6 0.4-0.7 0.2-0.2-0.5 0.4-0.7 0.1-1.6-0.6-2-0.6-0.4-1.9-0.9-2.7-1-0.8-0.1-2.2-1-3-1.9-1.3-1.5-1.3-1.6 0-1 0.8 0.4 0.1-0.5-1.7-2.1-1.7-1.5-8.4-7.3-14.9-12.8-6.5-5.5-13.2-11.4-14.9-13.1-1.6-1.7-4.8-4.3-7-5.8-2.2-1.5-4.9-2.6-6.1-2.6-1.2 0-3.6 1.5-5.5 3.3z"/>
		<path id="3rd-chip" class="s2" d="m1402 753.3c-0.3 0.3-10 1-21.5 1.6-11.5 0.6-27.8 1.8-36 2.7-8.3 0.8-19.3 2.2-24.5 3-5.2 0.8-10.8 1.4-12.5 1.4-1.7 0-7 0.7-12 1.6-5 0.8-13.3 2.2-18.5 3-5.2 0.9-12.7 2.2-16.5 2.9-3.8 0.7-11 2.1-16 3-5 0.9-15.1 3-22.5 4.7-7.4 1.7-20.3 4.8-28.5 6.9-8.3 2.1-17.7 4.5-21 5.4-3.3 0.8-9.4 2.5-13.5 3.7-4.1 1.1-16 4.7-26.5 8-10.5 3.3-24.6 8-31.5 10.4-6.9 2.5-21.3 7.9-32 12.1-10.7 4.2-26.3 10.6-34.5 14.3-8.3 3.7-22.6 10.2-32 14.4-9.4 4.2-24.2 11.5-33 16.2-8.8 4.8-24.3 13.6-34.5 19.7-10.2 6.1-25.7 16-34.5 22-8.8 6.1-24.1 17.1-34 24.5-9.9 7.5-22.3 16.9-27.5 21.1-5.2 4.1-18 15-28.5 24.2-10.5 9.2-20.5 18.2-22.3 20l-3.3 3.4c7.4 8.8 13 15.4 17 20.2 4.1 4.8 10.9 12.6 15.1 17.3 4.1 4.7 11.6 13.6 16.5 19.8 7.4 9.2 9.4 11.1 11 10.6 1.1-0.3 7.2-3 13.5-5.9 6.3-2.9 18.3-7.6 26.5-10.3 8.3-2.7 20.4-6.2 27-7.7 6.8-1.5 18.2-3.1 26.5-3.7 8-0.6 21.1-0.7 29.3-0.4 8.9 0.4 18.4 1.4 23.9 2.6 5.1 1.2 13.1 3.2 17.8 4.7 4.7 1.4 14.1 5.1 21 8.2 6.9 3.1 17.2 8.9 23 12.8 5.8 4 13.9 10.3 18 14 4.1 3.8 10.9 10.4 15 14.8 4.2 4.4 10.5 11.8 14.1 16.5 3.6 4.7 8.2 11.2 10.2 14.5 2 3.3 6.1 11.4 9.1 18 3 6.6 6.9 16.3 8.6 21.5 1.8 5.2 4.3 14.2 5.6 20 1.4 5.8 3.1 16.6 3.9 24 0.8 7.4 1.5 17.5 1.5 22.5 0 5-0.7 14.4-1.5 21-0.9 6.6-2.9 17.2-4.4 23.5-1.6 6.3-4.6 16-6.6 21.5-2 5.5-6.5 15.3-9.8 21.7-3.4 6.4-6 11.9-5.7 12.1 0.3 0.2 4.1 3.4 8.5 7.2 4.4 3.8 13.8 12.3 20.9 18.9 7.1 6.7 18.3 17.3 24.9 23.6 6.5 6.3 12.8 12.1 13.8 12.8 1.7 1.1 2.9 0.3 10.7-6.6 4.8-4.3 13.2-11 18.7-14.8 5.5-3.8 16.1-10.4 23.5-14.7 7.4-4.2 20.5-10.6 29-14.3 8.5-3.6 21.3-8.6 28.5-11 7.2-2.4 18.2-5.7 24.5-7.3 6.3-1.6 16.7-4.1 23-5.5 6.3-1.3 16.2-3.2 22-4 5.8-0.9 17.9-2.3 27-3.1 9.1-0.9 20.8-2.3 26-3.2 7.2-1.2 17-1.6 41-1.6 28 0 32.9 0.3 44 2.2 6.9 1.2 18.8 3.7 26.5 5.6 7.7 1.9 17.8 4.6 22.5 6.1 4.7 1.4 17.3 6.4 28 11.1 10.7 4.6 25.1 11.6 32 15.5 6.9 3.8 18.8 11.2 26.5 16.3 7.7 5.2 19.2 13.7 25.5 19 6.3 5.4 13.6 11.7 16.3 14.1l4.7 4.4c6.7-7.4 11.8-13.2 15.6-17.6 3.8-4.5 12.5-14.6 19.4-22.4 6.9-7.8 17.4-19.6 23.3-26.3 5.9-6.7 13.6-15.6 17.1-19.7 3.5-4.1 14.2-16.3 23.8-27 9.5-10.7 18.1-19.6 19.1-19.7 1.2-0.2 3.9 3.1 9.1 11 5.3 8 10 13.7 16.7 20.1 5.2 4.9 12.1 10.7 15.4 12.9 3.3 2.3 9.8 6 14.5 8.3 4.7 2.3 12.3 5.5 17 7.1 4.8 1.7 13 3.6 19 4.3 6.3 0.8 15.3 1.1 22.5 0.7 6.6-0.3 16.7-1.5 22.5-2.7 7.6-1.5 13.5-3.6 21.5-7.4 6-2.8 13.3-6.7 16-8.6 2.8-1.9 7.6-6.1 10.8-9.2 3.1-3.2 8.3-9.3 11.5-13.6 3.1-4.2 7.3-10.9 9.3-14.7 2-3.9 4.8-10.4 6.2-14.5 1.4-4.1 3.6-13.3 4.8-20.5 2-11.6 2.1-14.1 1.1-23-0.6-5.5-2.3-14-3.7-19-1.5-5-4.1-11.9-5.8-15.5-1.8-3.6-6.1-10.5-9.6-15.5-3.6-5-10.5-13.1-15.5-18-5.7-5.7-12.9-11.4-19.3-15.5-5.6-3.6-10.5-7.1-10.8-7.7-0.3-0.7 0.4-2.5 1.6-4 1.1-1.6 22.6-23.7 47.8-49.3 25.1-25.6 50.6-51.6 56.6-57.8 6.1-6.2 11.1-12.1 11.3-13 0.2-0.9-1.6-4.2-4-7.2-2.4-3-11.3-12.6-19.8-21.4-8.5-8.7-19.3-19.1-24-23-4.7-4-15.7-12.6-24.5-19.2-8.8-6.7-21.2-15.5-27.5-19.6-6.3-4.2-17.6-11.3-25-15.9-7.4-4.5-18.7-11-25-14.4-6.3-3.4-17.1-9.2-24-12.9-6.9-3.8-20.8-10.9-31-15.8-10.2-5-24.8-11.7-32.5-15-7.7-3.3-18.7-8-24.5-10.5-5.8-2.5-17.5-7.3-26-10.7-8.5-3.4-20.2-8.1-26-10.4-5.8-2.2-20.8-7.7-33.5-12.2-12.7-4.4-24.8-8.7-27-9.5-2.2-0.7-11.9-3.8-21.5-6.9-9.6-3-21.3-6.6-26-8-4.7-1.4-11.2-3-14.5-3.5-3.3-0.5-10.3-1.9-15.5-3.1-5.2-1.2-14.2-2.9-20-4-5.8-1-15.5-2.5-21.5-3.4-6-0.9-15.7-2.2-21.5-3-5.8-0.8-17.5-2.2-26-3-8.5-0.8-22.5-2.1-31-2.7-8.5-0.7-33.1-1.4-54.5-1.6-21.5-0.3-39.2-0.2-39.5 0z"/>
		<path id="ring" class="s3" d="m1380 577.6c-10.7 0.7-29.2 2.1-41 2.9-11.8 0.9-29.4 2.5-39 3.6-9.6 1-22.2 2.6-28 3.4-5.8 0.9-18.6 2.9-28.5 4.6-9.9 1.6-23 4.1-29 5.4-6 1.3-17.5 3.8-25.5 5.5-8 1.8-23 5.4-33.5 8-10.5 2.7-28.7 7.8-40.5 11.4-11.8 3.6-27.3 8.5-34.5 11-7.2 2.4-18 6.2-24 8.4-6 2.2-19.1 7.3-29 11.2-9.9 3.9-21.1 8.5-25 10.2-3.9 1.7-11 5-16 7.3-5 2.3-12.4 5.7-16.5 7.5-4.1 1.9-17.9 8.6-30.5 15-12.6 6.5-33.6 17.8-46.5 25.2-12.9 7.4-32.3 19-43 25.8-10.7 6.9-25.6 16.7-33 21.9-7.4 5.1-20 14.2-28 20.1-8 5.8-15.7 11.5-17.1 12.6-1.5 1-7.3 5.5-13 9.9-5.7 4.3-19.6 15.8-30.9 25.5-11.3 9.7-25.2 22.2-31 27.7-5.8 5.5-15.2 14.2-20.9 19.4-5.7 5.2-18.9 18.4-29.5 29.4-10.5 11-23.8 25.4-29.6 32-5.8 6.5-13.5 15.3-17.1 19.4-3.6 4.2-12.1 14.8-18.9 23.6-6.8 8.8-14.4 18.5-16.9 21.6-2.5 3.1-6 7.6-7.7 10-1.7 2.4-7.1 9.8-11.9 16.4-4.9 6.6-11.8 16.5-15.5 22-3.7 5.5-11.1 16.7-16.5 25-5.4 8.2-14.6 23.1-20.6 33-5.9 9.9-14.6 25.2-19.4 34-4.7 8.8-14.8 28.6-22.5 44-7.6 15.4-16.3 33.6-19.3 40.5-3 6.9-9.2 21.5-13.7 32.5-4.5 11-10.6 26.5-13.5 34.5-2.9 8-7.4 20.1-9.8 27-2.5 6.9-5.9 17-7.6 22.5-1.6 5.5-5.2 17.4-8 26.5-2.7 9.1-7.8 28.2-11.4 42.5-3.6 14.3-9.1 38.4-12.1 53.5-3 15.1-6.3 32.2-7.2 38-0.8 5.8-2.2 14.5-3 19.5-0.8 5-2.3 16-3.3 24.5-1.1 8.5-2.7 22.5-3.5 31-0.9 8.5-2.2 24.5-3.1 35.5-1.1 14.7-1.5 36.1-1.5 80.5 0 45.3 0.4 65.2 1.5 79 0.8 10.2 2.2 25.9 3 35 0.9 9.1 2 19.7 2.5 23.5 0.6 3.8 2.1 14.9 3.5 24.5 1.3 9.6 3.6 24.2 5 32.5 1.4 8.2 2.9 17 3.5 19.5 0.5 2.5 1.9 9.7 3 16 1.2 6.3 2.6 13.1 3.1 15 0.5 1.9 3.2 13 6 24.5 2.8 11.5 7.5 29.8 10.4 40.5 3 10.7 7.2 25.3 9.5 32.5 2.3 7.2 4.7 14.6 5.2 16.5 0.6 1.9 3.5 10.7 6.5 19.5 3 8.8 7.3 20.7 9.6 26.5 2.2 5.8 6.4 16.3 9.3 23.5 2.9 7.2 8.7 20.9 12.9 30.5 4.2 9.6 10.4 23.3 13.7 30.5 3.4 7.2 6.8 13.4 7.5 14 0.7 0.6 1 1.3 0.6 1.7-0.3 0.5-0.1 0.8 0.5 0.8 0.7 0 1 0.4 0.7 1-0.3 0.6 3.7 9.2 8.8 19.2 5.1 10.1 11.4 21.9 13.9 26.3 2.5 4.4 7.6 13.4 11.3 20 3.8 6.6 12.9 21.7 20.3 33.5 7.4 11.8 17 26.7 21.3 33 4.3 6.3 10.5 15.3 13.9 20 3.3 4.7 10.8 14.8 16.5 22.5 5.8 7.7 14.3 18.9 19.1 25 4.7 6.1 10.3 13.4 12.5 16.2 2.1 2.9 4.8 5.5 5.9 5.8 1.2 0.3 3.3-0.5 5.4-2.3 1.9-1.5 3.5-3.4 3.5-4.2 0.1-0.8-3.5-6-7.9-11.5-4.4-5.5-13.2-16.5-19.4-24.5-6.2-8-18.4-24.6-27.2-37-8.7-12.4-20.7-30.4-26.8-40-6-9.6-14.1-22.7-17.9-29-3.8-6.3-10.4-17.6-14.7-25-4.2-7.4-10.3-18.4-13.6-24.5-3.4-6.1-10.1-19.3-15.1-29.5-5-10.2-11.8-24.6-15.1-32-3.3-7.4-9.6-22.1-14-32.5-4.4-10.4-11.1-27.3-15-37.5-3.8-10.2-11-30.9-16-46-5-15.1-11.8-37.2-15.1-49-3.3-11.8-7.8-29.6-10.1-39.5-2.2-9.9-4.9-22-6-27-1.1-5-3.1-15.1-4.5-22.5-1.4-7.4-3.2-17.1-4.1-21.5-0.8-4.4-2.1-13-3-19-0.8-6-2.1-15.7-3-21.5-0.8-5.8-2.1-17-2.9-25-0.9-8-2.2-21.7-3-30.5-0.9-8.8-2-24.5-2.6-35-0.7-11.6-0.9-40.7-0.6-75 0.4-45.3 0.9-60.5 2.6-79.5 1.1-12.9 2.7-29.6 3.6-37 0.8-7.4 1.9-17.1 2.5-21.5 0.6-4.4 2.5-17.2 4.1-28.5 1.7-11.3 5.7-33.3 8.9-49 3.2-15.7 8.6-39.5 12-53 3.4-13.5 9.3-35.1 13.2-48 3.8-12.9 10.8-34.5 15.5-48 4.7-13.5 11.9-32.8 16-43 4.2-10.2 10.2-24.6 13.4-32 3.2-7.4 10.7-24.1 16.7-37 6-12.9 14.7-30.5 19.3-39 4.5-8.5 14.6-26.3 22.2-39.5 7.7-13.2 18.7-31.4 24.5-40.5 5.9-9.1 13.3-20.5 16.6-25.5 3.2-5 10.7-15.5 16.4-23.5 5.8-8 14.2-19.2 18.6-25 4.4-5.8 11.9-15.2 16.6-21 4.8-5.8 11-13.6 13.9-17.5 2.9-3.9 9.2-11.5 14-16.9 4.7-5.5 17.4-19.5 28.2-31 10.8-11.6 25.2-26.5 32.1-33.1 6.8-6.6 18.4-17.6 25.8-24.5 7.4-6.9 17.7-16.1 22.8-20.5 5.2-4.4 13.5-11.5 18.5-15.8 5.1-4.3 12.1-10.2 15.7-13.1 3.6-2.9 13.2-10.3 21.5-16.6 8.2-6.2 16.1-12.3 17.5-13.5 1.4-1.2 11-8 21.5-15.2 10.5-7.1 25.7-17.2 34-22.5 8.2-5.2 21.7-13.6 30-18.5 8.2-4.9 19.5-11.5 25-14.5 5.5-3.1 14.3-7.9 19.5-10.8 5.2-2.8 17.1-8.9 26.5-13.5 9.4-4.5 20.1-9.7 24-11.5 3.9-1.7 13.3-6 21-9.5 7.7-3.5 22.1-9.5 32-13.5 9.9-3.9 25.9-10 35.5-13.5 9.6-3.4 24.7-8.6 33.5-11.5 8.8-2.8 23.9-7.3 33.5-10 9.6-2.6 23.6-6.4 31-8.4 7.4-2 25-6.1 39-9.1 14-3 31.8-6.4 39.5-7.5 7.7-1.2 20.5-3.2 28.5-4.5 8-1.3 21.5-3.1 30-4 8.5-0.9 20.7-2.1 27-2.6 6.3-0.5 16.5-1.4 22.5-1.9 6-0.5 28.5-1.2 50-1.6 22.4-0.3 51.6-0.2 68.5 0.5 16.2 0.6 38.5 1.9 49.5 3 11 1.1 24.5 2.5 30 3.1 5.5 0.5 12.9 1.4 16.5 2 3.6 0.6 16.4 2.6 28.5 4.6 12.1 1.9 28.3 4.8 36 6.4 7.7 1.6 20.3 4.3 28 5.9 7.7 1.7 24.1 5.8 36.5 9.1 12.4 3.4 32.6 9.2 45 13 12.4 3.8 27.9 8.9 34.5 11.3 6.6 2.4 18.5 6.9 26.5 9.9 8 3.1 25.7 10.4 39.5 16.3 13.7 5.9 35.8 16.1 49 22.6 13.2 6.6 28 14.1 33 16.7 5 2.7 14.4 7.9 21 11.7 6.6 3.8 19.4 11.4 28.5 17 9.1 5.6 21.9 13.7 28.5 18 6.6 4.3 18.1 12.1 25.5 17.3 7.4 5.2 17.3 12.3 22 15.6 4.7 3.3 15.9 11.9 25 19 9.1 7.1 18.5 14.6 21 16.7 2.5 2.1 10.3 8.6 17.5 14.4 7.2 5.9 19.5 16.9 27.5 24.4 7.9 7.5 21.6 20.6 30.3 29.1 8.8 8.5 22.5 22.5 30.5 31 8.1 8.6 19.1 20.5 24.4 26.5 5.3 6.1 14.1 16.2 19.5 22.6 5.4 6.4 14.3 17.3 19.8 24.3 5.5 7.1 15.6 20.5 22.4 29.9 6.8 9.5 20.4 29.1 30.1 43.7 9.7 14.6 21.6 33.2 26.5 41.5 4.9 8.2 11.4 19.3 14.5 24.5 3.2 5.2 12.7 23.2 21.2 40 8.4 16.8 19.1 38.6 23.7 48.5 4.6 9.9 14 32.3 21 49.7 7 17.7 13 31.4 13.5 31 0.5-0.4 0.6-0.1 0.3 0.5-0.4 0.7 0.3 4.1 1.5 7.5 1.2 3.5 2.6 6.4 3 6.5 0.4 0.2 0.6 0.6 0.3 1-0.2 0.5 0.9 4.6 2.5 9.3 1.5 4.7 4.2 13 5.8 18.5 1.7 5.5 5 17 7.5 25.5 2.5 8.5 7.5 27 11.1 41 3.6 14 8.1 33.6 10.2 43.5 2 9.9 4.2 20.9 5 24.5 0.7 3.6 2.7 15.5 4.4 26.5 1.7 11 3.8 24.3 4.6 29.5 0.8 5.2 2.1 16.9 2.9 26 0.8 9.1 2.2 23.9 3 33 0.9 9.1 2 22.8 2.6 30.5 0.7 8.8 0.9 36.6 0.6 75-0.4 56.6-0.6 62.9-3.1 87.5-1.4 14.6-3 30.3-3.6 35-0.5 4.7-1.8 14.1-2.9 21-1 6.9-2.2 15.2-2.6 18.5-0.3 3.3-2 13.9-3.6 23.5-1.7 9.6-4.4 24.2-6 32.5-1.7 8.2-4.1 19.3-5.4 24.5-1.3 5.2-3.5 14.5-4.9 20.5-1.3 6-5.8 22.9-10 37.5-4.1 14.6-9.6 33-12.1 41-2.6 8-5.6 17.4-6.7 21-1.1 3.6-5.2 14.4-9 24-3.8 9.6-8.9 22.7-11.3 29-2.4 6.3-8.8 21.6-14.3 34-5.4 12.4-15.1 32.6-21.4 45-6.3 12.4-15 29-19.3 37-4.3 8-12.4 22.2-18 31.5-5.6 9.3-13.3 21.9-17 28-3.7 6.1-14.6 22.7-24.1 37-9.5 14.3-19.5 28.7-22.1 32-2.7 3.3-7.7 9.8-11.3 14.5-3.5 4.7-13.1 16.8-21.4 27-8.3 10.2-18.8 22.8-23.4 28-4.5 5.2-8.3 9.7-8.3 10 0 0.3 1.7 2.4 3.8 4.8l3.8 4.3c7.7-8.3 13.2-14.5 17.1-19.1 3.9-4.7 10-12.1 13.4-16.5 3.5-4.4 8.7-10.7 11.5-14 2.8-3.3 9.8-12.3 15.5-19.9 5.8-7.7 13.2-17.6 16.4-22 3.3-4.5 13-18.7 21.6-31.6 8.7-12.9 21.8-33.6 29.2-46 7.5-12.4 14.9-25.2 16.6-28.5 1.7-3.3 2.8-6.4 2.4-6.9-0.4-0.5-0.1-0.6 0.5-0.3 0.7 0.4 1.5 0 1.8-0.8 0.3-0.8 0.2-2.1-0.2-2.8-0.5-0.7-0.4-0.9 0.2-0.5 0.6 0.4 4.2-5 8.5-13 4.1-7.5 8.5-15.8 9.7-18.4 1.3-2.7 2.4-5.4 2.5-6.1 0.2-0.6 0.6-1.4 0.9-1.7 0.4-0.3 3.8-6.8 7.6-14.5 3.9-7.7 11.6-24.6 17.1-37.5 5.5-12.9 12.5-29.8 15.5-37.5 3.1-7.7 7.3-18.7 9.5-24.5 2.2-5.8 7.2-20.2 11.2-32 3.9-11.8 10.2-32.3 14-45.5 3.8-13.2 9.4-34.1 12.5-46.5 3-12.4 7.1-30.4 9.1-40 1.9-9.6 4.5-23.6 5.9-31 1.3-7.4 4-24.5 5.9-38 1.9-13.5 4-29.5 4.6-35.5 0.6-6 1.5-14.6 2.1-19 0.5-4.4 1.6-16.3 2.4-26.5 1.1-13.8 1.5-34.2 1.5-80 0-45.1-0.4-67-1.5-82-0.8-11.3-1.7-21.6-2-23-0.2-1.4-0.9-8.1-1.5-15-0.6-6.9-1.7-18.1-2.6-25-0.8-6.9-1.9-15-2.4-18-0.6-3-2.1-12.9-3.5-22-1.4-9.1-3.1-20.1-3.9-24.5-0.8-4.4-3.5-17.7-6-29.5-2.4-11.8-8.2-36.3-12.9-54.5-4.7-18.2-11.5-42-15-53-3.6-11-9-27.2-12-36-3-8.8-7.2-20.3-9.2-25.5-2-5.2-7.3-18.5-11.7-29.5-4.4-11-11.8-28.3-16.5-38.5-4.6-10.2-13.1-28-18.8-39.5-5.8-11.5-12.8-25.3-15.6-30.5-2.8-5.2-6.4-12-8.1-15-1.7-3-8.7-15-15.6-26.5-6.9-11.5-18.9-30.7-26.7-42.5-7.7-11.8-17.9-26.7-22.6-33-4.7-6.3-11.9-16.5-16.1-22.5-4.2-6-10.7-14.9-14.5-19.6-3.7-4.7-12.9-15.9-20.3-24.9-7.4-9.1-18.2-21.4-23.9-27.5-5.7-6-10.8-10.8-11.5-10.7-0.6 0.2-0.8 0-0.4-0.5 0.4-0.4-1.4-3.4-4-6.7-2.6-3.2-18.2-19.2-34.7-35.5-16.6-16.3-35.9-34.8-43-41.1-7.2-6.4-19.5-17-27.5-23.6-8-6.6-19.7-16.1-26.1-21-6.4-4.9-16.7-12.8-23-17.6-6.3-4.8-19.8-14.4-30.1-21.5-10.3-7-25.6-17.1-34-22.4-8.4-5.3-21.4-13.2-28.8-17.6-7.4-4.4-19.1-11.2-26-15-6.9-3.9-25.3-13.6-41-21.5-15.7-7.9-36.8-18-47-22.3-10.2-4.3-29.1-12-42-17.2-12.9-5.2-28.7-11.2-35-13.4-6.3-2.2-21.4-7.1-33.5-10.9-12.1-3.7-28.8-8.6-37-10.9-8.3-2.2-21.5-5.6-29.5-7.6-8-1.9-21.5-5.1-30-6.9-8.5-1.9-19.1-4.2-23.5-5-4.4-0.9-16.1-2.9-26-4.5-9.9-1.7-24.8-3.9-33-5.1-8.3-1.1-24.2-2.9-35.5-4-11.3-1-30.2-2.4-42-3-11.8-0.6-27.6-1.5-35-2-7.4-0.6-22.3-0.9-33-0.8-10.7 0-28.3 0.7-39 1.4z"/>
		<path id="4th-glitter" class="s4" d="m2083.4 309.8c-0.9 0.9-3.1 3.9-4.9 6.7-1.7 2.7-6.2 10.4-9.9 17-3.8 6.6-8.9 15.6-11.4 20-2.5 4.4-8.9 15.4-14.2 24.5-5.3 9.1-10.8 18.5-12.2 21-1.3 2.5-8.9 15.7-16.8 29.5-7.9 13.7-16.1 27.8-18.2 31.2-2.1 3.5-3.8 6.5-3.8 6.8 0 0.3-2.7 5-6 10.5-3.3 5.5-6 10.2-6 10.5 0 0.3-4.1 7.4-9.1 15.7-5 8.4-10.7 18.2-12.7 21.8-1.9 3.6-8.7 15.3-15 26-6.4 10.7-13.1 22.4-15 26-2.8 5.2-3.3 6.8-2.3 8 0.6 0.8 1.4 2.3 1.6 3.2 0.3 1 0.8 1.8 1.2 1.8 0.5 0 6.4 3.2 13.3 7.1 6.9 4 15.2 8.7 18.5 10.5 3.3 1.9 7.5 3.4 9.2 3.4 2.6 0 3.8-0.7 5.6-3.3 1.3-1.7 11.3-19 22.2-38.2 10.9-19.3 24.9-43.5 31-54 6.2-10.4 13.7-23.3 16.7-28.5 3.1-5.2 11.6-20.1 19.1-33 7.4-12.9 19.2-33.4 26.2-45.5 7-12.1 16.6-28.8 21.2-37 4.7-8.3 10.5-18.1 12.8-22 2.3-3.9 4.9-8.9 5.6-11.3l1.4-4.2c-5.4-4.9-9-7.3-11.5-8.5-2.5-1.3-8.8-4.9-14-8-5.2-3.2-11.3-6.6-13.5-7.6-2.2-1-4.8-1.9-5.7-1.9-0.9 0-2.4 0.8-3.4 1.7z"/>
		<path id="2nd-glitter" class="s4" d="m629.5 312c-9.4 4.4-18.4 8.7-20 9.6-1.6 0.9-4 2.6-5.2 3.8-2 1.9-2.1 2.4-0.9 5.6 0.8 1.9 3.7 8.4 6.6 14.5 2.9 6.1 8.5 18 12.5 26.5 4 8.5 12.3 26.1 18.5 39 6.2 12.9 13.4 28 16 33.5 2.6 5.5 8 16.8 12 25 4 8.3 10.3 21.5 14 29.5 3.7 8 12.7 26.9 20 42 7.2 15.1 17.2 36.3 22.3 47 5 10.7 10.2 21.3 11.6 23.4 2.4 3.7 2.8 3.9 6.6 3.4 2.2-0.2 12-4.2 21.8-8.9 9.9-4.6 19-9.4 20.3-10.6 2-1.9 2.3-2.9 1.8-6-0.3-2.1-1.5-5.8-2.6-8.3-1.2-2.5-6.5-13.5-12-24.5-5.4-11-10.1-20.9-10.5-22-0.3-1.1-3.3-7.6-6.6-14.5-3.2-6.9-10.7-22.4-16.4-34.5-5.8-12.1-13.3-28.1-16.8-35.5-3.4-7.4-11.1-23.6-17-36-5.9-12.4-15.1-31.7-20.5-43-5.4-11.3-11.4-23.9-13.3-28-1.9-4.1-6.3-13.4-9.7-20.5-3.4-7.1-7-14.2-8.1-15.7-1.3-1.9-2.8-2.8-4.7-2.8-1.5 0-10.3 3.6-19.7 8z"/>
		<path id="3rd-glitter" class="s4" d="m1339 135.6c-1.6 0.3-3 1.6-4 3.7-1.3 2.8-1.5 22.7-1.5 159.5v156.4c4.8 3.7 6.7 3.9 27.5 3.9 12.4-0.1 24-0.5 25.8-1.1l3.2-1c0.9-12.8 1-84.8 0.8-168.2-0.2-83.4-0.7-152-1.1-152.5-0.5-0.4-11.5-0.9-24.5-0.9-13-0.1-24.8 0-26.2 0.2z"/>
		<path id="5th glitter" class="s4" d="m2671.2 875c-1.5 1-3.4 2.7-4.2 3.7-0.8 1.1-2.3 2.2-3.2 2.6-1 0.4-1.6 1.2-1.3 1.7 0.3 0.5-0.1 1-0.7 1-0.7 0-4.9 2.8-9.3 6.3-4.4 3.5-12.3 9.8-17.5 13.9-5.2 4.2-14.1 11.4-19.6 16-5.6 4.6-15.3 12.6-21.5 17.8-6.3 5.3-13.4 11.1-15.9 13-2.5 1.9-10.5 8.4-17.9 14.5-7.3 6-19 15.6-26 21.3-6.9 5.7-19.1 15.6-26.9 22-7.9 6.4-19 15.5-24.7 20.2-5.7 4.7-18.4 15-28.2 23-9.8 7.9-19.2 15.8-21 17.5-2.1 1.9-3.2 4-3.3 5.7 0 2.1 3 6.6 11.3 17 6.1 7.8 13 16.2 15.2 18.5 2.2 2.3 4.9 4.2 6 4.3 1.1 0 4.3-1.3 7-2.8 2.8-1.5 5.4-3.7 6-5 0.6-1.2 1.6-2.2 2.3-2.2 0.6 0 1.8-0.9 2.5-2 0.6-1.1 1.6-2 2.2-2 0.6-0.1 7.3-5.2 15-11.5 7.7-6.3 20.3-16.7 28-23.1 7.7-6.3 17.4-14.1 21.5-17.3 4.1-3.2 10.9-8.7 15.1-12.2 4.2-3.5 13.2-11 20-16.6 6.8-5.6 14.7-12 17.4-14.2 2.8-2.2 8.2-6.5 12-9.6 3.9-3.2 9.4-7.9 12.3-10.6 2.8-2.7 5.5-4.9 6-4.9 0.4-0.1 3.6-2.6 7.1-5.8 3.6-3.1 8.8-7.5 11.7-9.7 2.8-2.2 9.6-7.6 15-12 5.5-4.5 13.7-11.2 18.4-14.9 4.7-3.8 9.9-8.1 11.7-9.5 1.7-1.4 4.8-4 6.9-5.6 2.1-1.6 5-4.2 6.6-5.8 2.3-2.2 2.7-3.3 2.3-6-0.3-1.7-1.8-4.8-3.3-6.7-1.5-1.9-7.6-9.4-13.6-16.5-6-7.1-10.9-13.1-11-13.3 0-0.1-1.8-0.6-3.8-1.1-3-0.7-4.3-0.5-6.6 0.9z"/>
		<path id="human-body" class="s1" d="m867.1 2671.6c-4.1 9.3-11 23.9-15.2 32.4-4.3 8.5-10 19.6-12.7 24.5-2.7 4.9-8.4 15.1-12.7 22.5-4.2 7.4-14.3 23.4-22.4 35.5-8 12.1-20.5 29.9-27.7 39.5-7.1 9.6-16.6 21.8-20.9 27-4.4 5.2-13.3 15.6-19.9 23-6.6 7.4-20.6 22.1-31.1 32.5-10.5 10.4-26.2 25.2-35 32.7-8.8 7.5-21.9 18.2-29 23.7-7.2 5.6-20.9 15.5-30.5 22-9.6 6.5-23.1 15.2-30 19.3-6.9 4.1-18.1 10.5-25 14.3-6.9 3.7-17.2 9-23 11.8-5.8 2.7-15.5 7.1-21.5 9.7-6.1 2.7-14.6 6.3-19 8-4.4 1.8-12.3 4.8-17.5 6.6-5.2 1.9-18.3 6.1-29 9.3-10.7 3.2-24.2 7-30 8.5-5.8 1.4-17.3 3.9-25.5 5.5-8.3 1.6-21.3 3.8-29 4.9-7.7 1.1-18.1 2.6-23 3.2-5 0.6-14.2 1.5-20.5 2-6.3 0.6-24.3 1.3-40 1.7-18 0.4-36.8 0.1-51-0.6-12.4-0.7-30.6-2.1-40.5-3.1-9.9-1.1-23-2.7-29-3.5-6.1-0.9-16.4-2.5-23-3.6-6.6-1.1-19.4-3.6-28.5-5.5-9.1-1.8-23.9-5.1-33-7.3-9.1-2.1-16.6-3.8-16.8-3.8-0.1 0.1 3.6 3.6 8.2 7.7 4.6 4.1 11.2 9.7 14.7 12.5 3.5 2.7 13.1 9.5 21.4 15 8.2 5.5 20.6 13.3 27.5 17.2 6.9 4 21.3 11.4 32 16.6 10.7 5.2 26.2 12.2 34.5 15.5 8.2 3.3 21.7 8.4 30 11.2 8.2 2.8 22 7.1 30.5 9.5 8.5 2.4 24.5 6.4 35.5 8.9 11 2.4 25.6 5.4 32.5 6.5 6.9 1.1 17.7 2.7 24 3.5 6.3 0.9 18.5 2.2 27 3 8.5 0.9 21.8 1.8 29.5 2.2 7.7 0.4 14.9 1 16 1.4 1.7 0.5 1.1 1.2-4 4.6-3.3 2.2-11 7.5-17 11.8l-11 7.7c-0.2 54.6-0.8 79-1.4 89.4-0.6 10.4-1.6 25.1-2.2 32.5-0.5 7.4-2.1 23.6-3.5 36-1.4 12.4-3.6 30.2-5 39.5-1.4 9.3-3.4 21.9-4.5 28-1.1 6.1-3.3 18-5 26.5-1.7 8.5-5.1 23.6-7.5 33.5-2.5 9.9-6.4 24.5-8.6 32.5-2.2 8-7 23.1-10.5 33.5-3.6 10.4-9.6 26.9-13.4 36.5-3.8 9.6-12.9 29.4-20.1 44-7.3 14.6-13.1 27.1-13 27.8 0.1 0.6-0.1 1-0.6 0.8-0.4-0.3-1.3 0.4-2 1.5-1 1.5-1 1.8 0 1.2 0.7-0.4 4.9-3.4 9.3-6.7 4.4-3.3 13.8-10.7 21-16.5 7.1-5.7 17.7-14.5 23.5-19.5 5.8-4.9 13.6-11.9 17.5-15.5 3.8-3.6 12.8-12.2 20-19.2 7.1-7 18.9-18.7 26-26 7.2-7.4 18.4-19.7 25-27.4 6.7-7.7 15.7-18.5 20.1-24 4.5-5.5 12.9-16.5 18.9-24.5 5.9-8 15.5-21.7 21.5-30.5 5.9-8.8 14.9-23 19.9-31.5 5-8.5 14.3-25.6 20.5-38 6.2-12.4 12.4-25.2 13.7-28.4 1.3-3.3 3-6.1 3.6-6.3 0.7-0.1 2.3 0.3 3.5 1 1.3 0.8 4.1 4 6.3 7.3 2.2 3.2 5.9 10.6 8.3 16.4 2.4 5.8 6.3 17 8.7 25 2.4 8 5.7 20.1 7.4 27 1.6 6.9 4.3 19.5 6 28 1.7 8.5 4.4 23.6 6.1 33.5 1.7 9.9 4.4 27.2 5.9 38.5 1.6 11.3 3.5 25.4 4.2 31.5l1.2 11c3.7-4.7 6.7-9.4 9.2-13.5 2.4-4.1 6.7-12.4 9.6-18.5 2.8-6.1 7.3-16.4 10.1-23 2.7-6.6 7.5-20.1 10.7-30 3.2-9.9 7.9-26.1 10.4-36 2.6-9.9 5.7-23.2 7.1-29.5 1.4-6.3 3.6-17.8 5-25.5 1.4-7.7 3.7-21.9 5-31.5 1.4-9.6 3.2-23.8 4.1-31.5 0.8-7.7 2.2-21.9 3-31.5 0.9-9.6 2-29 2.6-43 0.5-14 1-41.9 1-62 0-20.1-0.5-48.4-1-63-0.6-14.6-1.2-26.6-1.3-26.7-0.2-0.2-3 0.4-6.3 1.3-3.3 0.8-11.2 2.4-17.5 3.4-6.3 1.1-12.5 2-13.8 2-1.2 0-2.2-0.3-2.2-0.7 0-0.5 2.2-2 4.8-3.4 2.6-1.5 9.4-5.9 15.2-9.9 5.8-4 15.9-11.6 22.4-16.9 6.6-5.3 16.5-13.8 22-19 5.6-5.2 14.3-13.8 19.4-19 5.1-5.3 13.3-14.1 18-19.6 4.8-5.5 12.7-15.2 17.6-21.5 4.9-6.3 10.1-13.1 11.6-15 1.4-1.9 5.8-8.2 9.7-14 3.8-5.8 10.7-16.8 15.3-24.5 4.5-7.7 12-21.4 16.5-30.5 4.6-9.1 10.5-21.7 13.3-28 2.7-6.3 7.2-17.6 10-25 2.7-7.4 6.5-18.4 8.5-24.5 1.9-6.1 4.9-15.9 6.5-22 1.7-6.1 4.2-15.9 5.6-22 1.3-6.1 3.4-15.7 4.5-21.5 1.1-5.8 2.9-16.3 4-23.5 1.1-7.2 2.7-19.3 3.5-27 0.8-7.7 2-23.4 2.6-35 0.6-11.6 1-27.9 0.8-36.4l-0.3-15.3z"/>
	</g>
</svg>